<svg id="svg" version="1.1" width="400" height="320" viewBox="0 0 400 320" xmlns="http://www.w3.org/2000/svg" xmlns:xlink="http://www.w3.org/1999/xlink" ><g id="svgg"><path id="path0" d="M175.003 113.124 C 171.654 114.042,170.047 115.820,168.826 119.957 C 167.976 122.839,168.079 170.884,168.941 173.634 C 171.077 180.445,179.563 182.826,184.643 178.038 C 185.977 176.782,186.948 176.860,187.533 178.270 C 188.036 179.486,188.669 179.454,188.920 178.200 C 189.255 176.523,189.151 150.522,188.805 149.612 L 188.489 148.783 183.605 148.872 L 178.720 148.960 178.720 151.520 L 178.720 154.080 180.788 154.177 C 183.826 154.320,183.680 153.919,183.680 162.103 C 183.680 171.487,183.347 172.923,180.877 174.200 C 177.936 175.721,175.156 174.235,174.238 170.652 C 173.464 167.628,173.658 122.632,174.454 120.954 C 175.402 118.951,176.077 118.578,178.747 118.578 C 182.990 118.578,183.673 120.115,183.678 129.674 C 183.680 135.421,183.543 135.182,186.741 134.980 L 188.320 134.880 188.320 127.360 C 188.320 119.313,188.077 117.954,186.217 115.581 C 184.191 112.996,179.344 111.934,175.003 113.124 M117.825 113.553 C 117.531 113.740,117.438 114.507,117.505 116.188 L 117.600 118.560 123.040 118.730 C 132.745 119.032,131.974 116.745,132.089 145.552 C 132.189 170.465,132.138 171.369,130.551 172.957 L 129.589 173.920 123.594 174.080 L 117.600 174.240 117.507 176.711 C 117.390 179.789,117.000 179.650,125.224 179.459 C 132.631 179.287,134.246 178.685,136.223 175.360 C 138.717 171.164,138.819 118.966,136.335 118.138 C 136.151 118.077,136.000 117.837,136.000 117.606 C 136.000 116.848,133.637 114.836,131.840 114.063 C 130.005 113.273,118.903 112.869,117.825 113.553 M150.480 113.492 C 150.164 113.620,150.080 120.500,150.080 146.389 L 150.080 179.125 150.800 179.318 C 152.051 179.654,155.056 179.536,155.456 179.136 C 156.121 178.471,156.001 113.730,155.334 113.474 C 154.737 113.245,151.058 113.259,150.480 113.492 M201.505 113.481 C 201.231 113.756,201.200 178.300,201.474 179.014 C 201.733 179.688,206.132 179.748,206.682 179.085 C 206.946 178.768,207.021 169.872,206.962 146.045 L 206.880 113.440 204.305 113.348 C 202.889 113.298,201.629 113.358,201.505 113.481 M219.656 113.707 C 219.564 113.947,219.532 115.137,219.584 116.352 L 219.680 118.560 222.987 118.720 C 227.707 118.948,227.200 115.229,227.200 149.627 C 227.200 176.236,227.250 179.151,227.706 179.326 C 228.362 179.577,231.478 179.577,232.134 179.326 C 232.590 179.151,232.640 176.249,232.645 149.806 C 232.650 115.382,232.184 118.915,236.741 118.789 L 240.026 118.697 239.933 116.069 L 239.840 113.440 229.832 113.355 C 221.618 113.286,219.793 113.349,219.656 113.707 M261.946 113.680 C 261.469 115.351,260.799 119.500,260.795 120.807 C 260.793 121.683,260.588 123.264,260.340 124.320 C 260.092 125.376,259.798 127.320,259.687 128.640 C 259.575 129.960,259.287 132.048,259.047 133.280 C 258.807 134.512,258.528 136.528,258.428 137.760 C 258.327 138.992,258.031 141.008,257.768 142.240 C 257.506 143.472,257.289 145.273,257.286 146.242 C 257.283 147.211,257.133 148.507,256.953 149.122 C 256.773 149.737,256.419 151.968,256.166 154.080 C 255.730 157.723,255.445 159.814,254.684 164.960 C 254.502 166.192,254.162 168.856,253.929 170.880 C 253.695 172.904,253.334 175.222,253.126 176.032 C 252.918 176.842,252.796 177.922,252.854 178.432 L 252.960 179.360 255.504 179.360 L 258.048 179.360 258.480 176.640 C 258.718 175.144,259.018 172.861,259.147 171.566 C 259.324 169.803,259.536 169.100,259.992 168.766 C 260.818 168.162,269.214 168.122,269.661 168.720 C 270.163 169.392,270.713 172.150,271.042 175.651 C 271.412 179.592,271.206 179.299,273.729 179.460 C 277.306 179.688,277.237 179.907,276.134 171.840 C 275.953 170.520,275.661 168.216,275.484 166.720 C 275.307 165.224,274.961 162.704,274.715 161.120 C 274.469 159.536,274.122 156.944,273.945 155.360 C 273.153 148.307,272.930 146.546,272.487 143.840 C 272.228 142.256,271.941 139.952,271.851 138.720 C 271.760 137.488,271.471 135.472,271.208 134.240 C 270.946 133.008,270.725 131.136,270.718 130.080 C 270.711 129.024,270.559 127.584,270.382 126.880 C 270.204 126.176,269.850 123.800,269.596 121.600 C 269.100 117.320,268.559 113.987,268.289 113.549 C 268.008 113.096,262.078 113.218,261.946 113.680 M290.000 113.492 C 289.684 113.620,289.600 120.505,289.600 146.412 L 289.600 179.171 290.640 179.359 C 291.212 179.462,295.136 179.504,299.360 179.453 L 307.040 179.360 307.133 176.720 L 307.226 174.080 301.912 174.080 C 298.861 174.080,296.334 173.939,295.979 173.749 C 295.374 173.425,295.360 172.752,295.360 143.543 C 295.360 116.597,295.310 113.649,294.854 113.474 C 294.257 113.245,290.578 113.259,290.000 113.492 M265.543 133.052 C 265.918 134.423,266.356 137.289,266.514 139.421 C 266.673 141.553,266.890 143.438,266.997 143.610 C 267.104 143.783,267.340 145.633,267.523 147.722 C 267.705 149.811,268.058 152.600,268.306 153.920 C 268.555 155.240,268.835 157.718,268.930 159.427 C 269.157 163.538,269.176 163.520,264.610 163.520 C 260.254 163.520,260.142 163.397,260.768 159.271 C 260.988 157.824,261.303 155.272,261.469 153.600 C 261.636 151.928,261.985 149.501,262.246 148.206 C 262.507 146.911,262.723 145.039,262.726 144.046 C 262.729 143.053,262.944 141.235,263.204 140.007 C 263.464 138.778,263.757 136.618,263.855 135.207 C 264.234 129.744,264.532 129.364,265.543 133.052 " stroke="none" fill="#161616" fill-rule="evenodd"></path><path id="path1" d="M0.000 160.000 L 0.000 320.000 200.000 320.000 L 400.000 320.000 400.000 160.000 L 400.000 0.000 200.000 0.000 L 0.000 0.000 0.000 160.000 M183.200 112.426 C 183.728 112.718,184.345 112.957,184.570 112.958 C 184.796 112.959,185.063 113.176,185.164 113.440 C 185.266 113.704,185.513 113.920,185.714 113.920 C 186.160 113.920,187.840 115.973,187.840 116.518 C 187.840 116.733,188.048 117.139,188.301 117.419 C 189.542 118.790,189.856 134.992,188.659 135.866 C 187.941 136.391,184.778 136.478,183.541 136.008 L 182.720 135.696 182.720 128.699 L 182.720 121.703 181.840 120.543 C 180.703 119.044,177.228 118.772,175.920 120.080 L 175.200 120.800 175.200 146.240 C 175.200 174.868,175.050 173.142,177.567 173.556 C 179.124 173.812,181.440 173.440,181.440 172.932 C 181.440 172.701,181.692 172.371,182.000 172.199 C 182.505 171.917,182.570 171.121,182.661 164.130 C 182.790 154.329,182.947 154.933,180.238 154.815 L 178.080 154.720 177.987 151.707 C 177.920 149.512,178.007 148.622,178.307 148.432 C 178.891 148.061,188.269 148.096,189.259 148.472 L 190.080 148.784 190.080 164.433 C 190.080 177.892,190.013 180.137,189.604 180.477 C 188.881 181.077,187.564 180.609,187.328 179.667 C 186.988 178.314,186.006 178.038,184.990 179.011 C 184.514 179.467,183.928 179.840,183.688 179.840 C 183.447 179.840,182.979 180.086,182.647 180.386 C 181.741 181.206,174.431 181.216,173.528 180.400 C 173.188 180.092,172.705 179.839,172.455 179.839 C 172.040 179.837,170.709 178.698,169.661 177.447 C 169.430 177.171,169.083 176.481,168.889 175.913 C 168.694 175.345,168.379 174.777,168.188 174.652 C 167.436 174.158,167.557 120.235,168.313 118.575 C 168.669 117.794,168.960 117.006,168.960 116.825 C 168.960 116.084,172.441 113.089,174.104 112.399 C 176.258 111.504,181.558 111.520,183.200 112.426 M131.190 112.944 C 131.976 113.095,132.672 113.377,132.737 113.570 C 132.801 113.762,133.093 113.921,133.387 113.923 C 134.048 113.926,136.204 115.932,136.480 116.800 C 136.592 117.152,136.806 117.440,136.956 117.440 C 137.106 117.440,137.331 117.908,137.455 118.480 C 137.580 119.052,137.879 119.804,138.121 120.151 C 138.768 121.081,138.775 172.024,138.128 172.969 C 137.890 173.316,137.590 174.031,137.462 174.559 C 136.928 176.749,133.315 179.840,131.287 179.840 C 130.782 179.840,130.188 180.020,129.968 180.240 C 129.687 180.521,127.862 180.673,123.816 180.751 C 116.257 180.897,116.422 180.989,116.549 176.705 L 116.640 173.600 122.609 173.513 L 128.579 173.426 129.895 172.110 L 131.212 170.793 131.126 146.414 C 131.048 124.192,130.993 121.987,130.509 121.503 C 130.216 121.211,129.917 120.790,129.843 120.569 C 129.743 120.270,128.150 120.137,123.654 120.051 C 116.217 119.910,116.480 120.052,116.480 116.174 C 116.480 114.449,116.625 113.263,116.864 113.024 C 117.321 112.567,128.903 112.503,131.190 112.944 M156.416 113.024 C 157.096 113.704,156.958 179.630,156.276 180.197 C 155.449 180.883,151.216 180.989,150.237 180.348 L 149.440 179.825 149.440 146.617 C 149.440 121.214,149.530 113.318,149.824 113.024 C 150.345 112.503,155.895 112.503,156.416 113.024 M207.822 113.147 C 208.279 113.605,208.321 116.884,208.244 146.616 L 208.160 179.577 207.405 180.188 C 206.803 180.676,206.133 180.800,204.108 180.800 L 201.567 180.800 201.104 179.690 C 200.523 178.302,200.396 114.334,200.971 113.259 C 201.422 112.418,207.001 112.327,207.822 113.147 M240.695 113.170 C 241.584 113.974,241.531 117.994,240.617 119.157 C 239.980 119.966,239.827 120.000,236.782 120.000 L 233.610 120.000 233.525 149.946 C 233.427 184.455,233.857 180.800,229.894 180.800 C 228.103 180.800,227.423 180.664,226.835 180.188 L 226.080 179.577 225.995 149.788 L 225.910 120.000 222.893 120.000 C 219.140 120.000,218.880 119.755,218.880 116.228 C 218.880 112.327,217.925 112.640,229.826 112.640 C 238.946 112.640,240.176 112.700,240.695 113.170 M269.311 113.442 C 269.678 114.002,269.908 115.379,270.072 118.002 C 270.201 120.069,270.463 122.143,270.654 122.611 C 270.846 123.079,271.101 125.095,271.223 127.091 C 271.344 129.087,271.573 130.884,271.732 131.084 C 271.890 131.285,272.147 133.229,272.303 135.404 C 272.459 137.580,272.732 139.737,272.909 140.197 C 273.086 140.657,273.333 142.601,273.457 144.517 C 273.581 146.433,273.831 148.286,274.013 148.635 C 274.194 148.984,274.447 151.014,274.574 153.145 C 274.700 155.277,274.971 157.333,275.176 157.715 C 275.380 158.097,275.626 159.883,275.722 161.684 C 275.818 163.486,276.087 165.608,276.320 166.400 C 276.553 167.192,276.829 169.328,276.935 171.147 C 277.040 172.966,277.271 174.724,277.447 175.053 C 279.212 178.351,277.944 180.800,274.471 180.800 C 271.330 180.800,270.846 180.434,270.570 177.844 C 270.452 176.742,270.210 175.369,270.031 174.793 C 269.852 174.217,269.610 172.777,269.493 171.593 L 269.280 169.440 264.906 169.440 C 259.679 169.440,260.103 169.100,259.802 173.523 C 259.570 176.931,258.986 179.421,258.197 180.372 C 257.536 181.169,252.902 180.949,252.448 180.100 C 252.002 179.267,252.300 173.280,252.856 171.913 C 253.051 171.433,253.317 169.442,253.448 167.489 C 253.579 165.535,253.842 163.645,254.034 163.287 C 254.225 162.929,254.471 161.215,254.579 159.478 C 254.688 157.741,254.967 155.672,255.200 154.880 C 255.432 154.088,255.704 152.033,255.803 150.314 C 255.902 148.595,256.119 146.936,256.284 146.628 C 256.449 146.320,256.727 144.374,256.901 142.303 C 257.076 140.233,257.358 138.364,257.528 138.150 C 257.698 137.935,257.920 136.248,258.022 134.400 C 258.124 132.552,258.430 130.333,258.703 129.469 C 258.977 128.605,259.199 126.877,259.198 125.629 C 259.198 124.381,259.405 122.712,259.659 121.920 C 259.913 121.128,260.246 118.956,260.399 117.093 C 260.766 112.607,260.701 112.667,265.193 112.652 C 268.681 112.640,268.801 112.663,269.311 113.442 M295.936 113.024 C 296.229 113.317,296.320 120.503,296.320 143.417 L 296.320 173.425 302.000 173.513 L 307.680 173.600 307.772 176.559 C 307.915 181.155,308.684 180.800,298.572 180.800 C 291.175 180.800,289.895 180.729,289.463 180.297 C 288.938 179.772,288.653 113.374,289.173 112.853 C 289.563 112.464,295.527 112.615,295.936 113.024 M114.400 116.160 L 114.400 119.200 108.960 119.360 C 102.620 119.546,101.297 119.952,100.603 121.920 C 100.063 123.452,99.986 168.625,100.520 170.745 C 101.161 173.293,101.870 173.556,108.631 173.752 L 114.400 173.920 114.493 176.591 C 114.621 180.247,114.744 180.160,109.472 180.160 C 100.466 180.160,95.825 178.600,94.867 175.250 C 94.758 174.871,94.429 174.056,94.135 173.440 C 93.649 172.422,93.600 169.966,93.600 146.560 C 93.600 118.610,93.473 120.986,95.151 117.475 C 96.011 115.674,98.032 114.134,100.800 113.171 C 101.064 113.079,104.232 113.030,107.840 113.062 L 114.400 113.120 114.400 116.160 M110.217 132.023 C 110.583 132.389,110.720 133.166,110.720 134.880 C 110.720 138.093,110.493 138.291,106.925 138.172 L 104.160 138.080 104.067 135.225 C 104.015 133.655,104.047 132.179,104.137 131.945 C 104.388 131.290,109.550 131.356,110.217 132.023 M127.360 131.833 C 127.726 132.064,127.840 132.790,127.840 134.880 C 127.840 138.201,127.810 138.228,124.230 138.235 C 121.117 138.241,121.120 138.244,121.120 134.880 C 121.120 131.516,121.117 131.519,124.230 131.525 C 125.687 131.528,127.096 131.666,127.360 131.833 M264.554 135.552 C 264.425 135.681,264.314 136.879,264.306 138.213 C 264.298 139.548,264.143 141.288,263.961 142.080 C 263.778 142.872,263.493 145.104,263.327 147.040 C 263.161 148.976,262.813 151.198,262.553 151.977 C 262.293 152.756,262.080 154.489,262.080 155.827 C 262.080 157.166,261.876 159.047,261.627 160.008 C 261.056 162.210,261.085 162.229,265.040 162.235 L 268.160 162.240 268.155 160.080 C 268.153 158.892,267.943 157.344,267.689 156.640 C 267.430 155.920,267.222 154.165,267.214 152.627 C 267.206 151.124,266.972 149.036,266.693 147.987 C 266.414 146.938,266.071 144.352,265.930 142.240 C 265.676 138.407,264.997 135.109,264.554 135.552 M128.539 152.696 C 129.601 153.693,128.816 155.122,124.699 159.680 C 124.302 160.120,123.058 161.632,121.935 163.040 C 117.001 169.227,116.318 169.300,110.984 164.208 C 108.182 161.533,107.836 160.573,109.285 159.485 C 110.403 158.645,110.403 158.645,112.739 160.854 C 116.311 164.233,116.403 164.224,119.627 160.205 C 127.019 150.993,126.865 151.123,128.539 152.696 M125.574 181.954 C 125.986 182.112,126.080 182.709,126.080 185.162 C 126.080 188.555,125.888 188.800,123.227 188.800 C 122.561 188.800,121.598 188.942,121.088 189.116 C 120.577 189.290,118.648 189.662,116.800 189.943 C 114.952 190.223,112.216 190.638,110.720 190.866 C 106.727 191.472,106.560 191.359,106.560 188.059 C 106.560 184.980,106.602 184.934,109.977 184.355 C 111.002 184.179,113.640 183.731,115.840 183.359 C 118.040 182.987,120.848 182.491,122.080 182.257 C 124.876 181.725,124.957 181.718,125.574 181.954 M125.696 190.464 C 126.481 191.249,126.197 196.445,125.360 196.606 C 124.964 196.682,123.488 196.972,122.080 197.251 C 120.672 197.530,118.656 197.891,117.600 198.052 C 115.048 198.442,111.596 199.004,109.490 199.372 C 106.815 199.839,106.560 199.572,106.560 196.302 C 106.560 193.783,106.612 193.566,107.280 193.304 C 108.511 192.821,112.598 192.085,120.000 191.013 C 121.320 190.822,122.832 190.548,123.360 190.405 C 124.771 190.023,125.268 190.036,125.696 190.464 M121.767 201.320 C 119.760 205.384,119.612 205.568,117.919 206.134 C 114.603 207.243,114.041 206.985,112.313 203.566 C 110.937 200.844,111.279 200.444,115.376 199.986 C 116.951 199.809,118.672 199.533,119.200 199.371 C 122.294 198.420,122.952 198.920,121.767 201.320 " stroke="none" fill="#fbfbfb" fill-rule="evenodd"></path><path id="path2" d="M99.984 114.009 C 97.216 115.226,95.364 117.158,94.888 119.322 C 94.769 119.867,94.538 120.395,94.375 120.495 C 93.648 120.945,94.021 171.772,94.767 173.818 C 96.483 178.525,98.299 179.333,107.200 179.348 L 114.080 179.360 114.173 176.746 L 114.265 174.131 108.404 174.026 C 98.763 173.852,99.561 176.332,99.538 146.476 C 99.526 131.510,99.634 122.993,99.840 122.636 C 100.016 122.330,100.298 121.691,100.466 121.215 C 101.054 119.556,102.304 119.216,108.480 119.040 L 114.080 118.880 114.080 116.160 L 114.080 113.440 107.840 113.369 C 102.006 113.303,101.495 113.345,99.984 114.009 M104.533 132.053 C 104.267 132.320,104.251 136.728,104.514 137.414 C 104.667 137.812,105.211 137.920,107.063 137.920 C 109.844 137.920,110.080 137.682,110.080 134.880 C 110.080 132.082,109.842 131.840,107.082 131.840 C 105.798 131.840,104.651 131.936,104.533 132.053 M121.736 132.268 C 121.645 132.504,121.614 133.836,121.666 135.228 L 121.760 137.760 124.114 137.855 C 127.005 137.971,127.340 137.662,127.340 134.880 C 127.340 132.162,127.007 131.840,124.195 131.840 C 122.573 131.840,121.852 131.966,121.736 132.268 M125.362 153.840 C 124.718 154.676,123.857 155.720,123.447 156.160 C 123.038 156.600,121.527 158.418,120.089 160.199 C 116.454 164.703,116.333 164.726,112.960 161.600 C 110.284 159.120,110.338 159.146,109.444 159.911 C 108.334 160.861,108.708 161.634,111.464 164.090 C 116.525 168.599,116.877 168.573,121.047 163.393 C 122.479 161.615,123.746 160.088,123.865 160.000 C 123.983 159.912,125.164 158.472,126.489 156.800 L 128.899 153.760 128.234 153.040 C 127.256 151.981,126.666 152.146,125.362 153.840 M124.294 182.390 C 123.927 182.538,122.310 182.820,120.699 183.016 C 119.088 183.212,117.444 183.493,117.045 183.642 C 116.646 183.790,115.312 184.014,114.080 184.139 C 112.848 184.264,110.832 184.618,109.600 184.925 L 107.360 185.484 107.360 188.022 L 107.360 190.560 108.620 190.663 C 109.313 190.719,110.537 190.596,111.340 190.388 C 112.143 190.181,114.096 189.825,115.680 189.597 C 117.264 189.370,119.424 189.027,120.480 188.835 C 121.536 188.644,123.069 188.407,123.886 188.309 C 125.573 188.107,125.751 187.802,125.751 185.120 C 125.751 183.402,125.491 182.067,125.163 182.100 C 125.051 182.111,124.660 182.242,124.294 182.390 M121.847 191.055 C 120.663 191.193,119.223 191.451,118.647 191.628 C 118.071 191.805,116.642 192.044,115.470 192.158 C 114.299 192.271,112.656 192.570,111.819 192.822 C 110.983 193.074,109.829 193.280,109.255 193.280 C 107.306 193.280,107.200 193.428,107.200 196.160 C 107.200 198.061,107.312 198.694,107.672 198.833 C 108.218 199.042,112.594 198.564,114.240 198.115 C 114.856 197.946,116.296 197.716,117.440 197.602 C 118.584 197.489,119.977 197.254,120.535 197.081 C 121.094 196.908,122.462 196.666,123.575 196.543 L 125.600 196.320 125.697 194.250 C 125.750 193.111,125.712 191.851,125.611 191.450 C 125.410 190.650,125.364 190.645,121.847 191.055 M120.320 199.649 C 120.056 199.798,118.760 200.016,117.440 200.134 C 112.508 200.576,111.112 201.593,112.787 203.520 C 113.017 203.784,113.297 204.305,113.410 204.678 C 114.078 206.874,119.126 206.409,119.865 204.082 C 119.980 203.719,120.489 202.718,120.997 201.857 C 122.308 199.634,122.019 198.694,120.320 199.649 " stroke="none" fill="#3bb6d5" fill-rule="evenodd"></path><path id="path3" d="M174.104 112.399 C 172.441 113.089,168.960 116.084,168.960 116.825 C 168.960 117.006,168.669 117.794,168.313 118.575 C 167.557 120.235,167.436 174.158,168.188 174.652 C 168.379 174.777,168.694 175.345,168.889 175.913 C 169.083 176.481,169.430 177.171,169.661 177.447 C 170.759 178.757,172.050 179.837,172.521 179.839 C 172.807 179.839,173.221 180.056,173.440 180.320 C 173.659 180.584,174.217 180.786,174.679 180.768 C 175.404 180.741,175.432 180.706,174.880 180.517 C 171.564 179.381,169.953 177.778,168.629 174.294 C 167.619 171.636,167.653 121.396,168.667 118.720 C 171.820 110.399,183.794 109.440,187.675 117.197 C 188.493 118.832,188.800 119.227,188.800 118.642 C 188.800 118.200,188.584 117.659,188.320 117.440 C 188.056 117.221,187.840 116.836,187.840 116.584 C 187.840 115.989,186.189 113.920,185.714 113.920 C 185.513 113.920,185.266 113.704,185.164 113.440 C 185.063 113.176,184.796 112.959,184.570 112.958 C 184.345 112.957,183.728 112.718,183.200 112.426 C 181.558 111.520,176.258 111.504,174.104 112.399 M116.864 113.024 C 116.625 113.263,116.480 114.449,116.480 116.174 C 116.480 120.052,116.217 119.910,123.654 120.051 C 128.150 120.137,129.743 120.270,129.843 120.569 C 129.917 120.790,130.157 121.151,130.377 121.371 C 130.597 121.591,130.861 121.985,130.963 122.246 C 131.108 122.613,131.155 122.591,131.175 122.147 C 131.261 120.195,128.774 119.371,122.779 119.365 C 116.690 119.359,116.800 119.420,116.800 115.995 C 116.800 113.401,116.831 113.284,117.576 113.097 C 119.180 112.695,131.390 113.092,131.959 113.566 C 132.463 113.984,133.140 113.833,132.706 113.399 C 131.921 112.614,117.613 112.275,116.864 113.024 M149.824 113.024 C 149.530 113.318,149.440 121.214,149.440 146.617 L 149.440 179.825 150.237 180.348 C 151.216 180.989,155.449 180.883,156.276 180.197 C 156.958 179.630,157.096 113.704,156.416 113.024 C 155.895 112.503,150.345 112.503,149.824 113.024 M200.970 113.262 C 200.744 113.684,200.664 124.366,200.720 146.462 L 200.803 179.040 200.882 146.384 C 200.941 121.500,201.051 113.637,201.344 113.344 C 201.860 112.828,206.780 112.828,207.296 113.344 C 207.590 113.638,207.680 121.428,207.680 146.457 L 207.680 179.185 206.881 179.709 C 205.852 180.383,201.726 180.236,201.266 179.508 C 200.860 178.867,200.881 179.414,201.291 180.181 C 201.775 181.085,206.290 181.091,207.405 180.188 L 208.160 179.577 208.244 146.616 C 208.321 116.884,208.279 113.605,207.822 113.147 C 206.999 112.325,201.421 112.418,200.970 113.262 M219.409 112.880 C 219.327 113.012,223.869 113.078,229.502 113.027 C 241.370 112.920,240.640 112.726,240.640 115.978 C 240.640 119.215,240.511 119.326,236.640 119.432 L 233.440 119.520 233.280 149.431 L 233.120 179.341 232.320 179.746 C 231.183 180.321,228.140 180.270,227.271 179.662 L 226.560 179.164 226.560 149.881 C 226.560 130.307,226.450 120.393,226.229 119.979 C 225.938 119.435,225.536 119.360,222.908 119.360 C 219.296 119.360,219.264 119.331,219.119 115.985 L 219.009 113.440 218.944 116.009 C 218.850 119.778,219.069 120.000,222.893 120.000 L 225.910 120.000 225.995 149.788 L 226.080 179.577 226.835 180.188 C 227.423 180.664,228.103 180.800,229.894 180.800 C 233.857 180.800,233.427 184.455,233.525 149.946 L 233.610 120.000 236.782 120.000 C 240.832 120.000,241.280 119.603,241.280 116.006 C 241.280 112.436,241.974 112.640,229.834 112.640 C 224.182 112.640,219.491 112.748,219.409 112.880 M261.138 113.185 C 260.845 113.516,260.575 114.941,260.399 117.093 C 260.246 118.956,259.913 121.128,259.659 121.920 C 259.405 122.712,259.219 124.224,259.246 125.280 C 259.274 126.336,259.349 126.768,259.414 126.240 C 259.479 125.712,259.674 124.675,259.847 123.935 C 260.020 123.195,260.304 121.179,260.478 119.455 C 261.148 112.805,261.092 112.873,265.759 113.026 L 268.639 113.120 269.035 114.331 C 269.253 114.998,269.569 116.654,269.738 118.011 L 270.044 120.480 269.947 117.373 C 269.803 112.734,269.705 112.637,265.193 112.652 C 262.288 112.662,261.512 112.764,261.138 113.185 M289.173 112.853 C 288.653 113.374,288.938 179.772,289.463 180.297 C 289.895 180.729,291.175 180.800,298.572 180.800 C 308.684 180.800,307.915 181.155,307.772 176.559 L 307.680 173.600 302.080 173.584 L 296.480 173.569 301.920 173.744 L 307.360 173.920 307.453 176.591 C 307.513 178.285,307.411 179.426,307.174 179.711 C 306.725 180.252,291.484 180.374,290.099 179.847 L 289.277 179.535 289.359 146.327 L 289.440 113.120 292.077 113.027 C 296.495 112.871,295.984 108.967,296.080 143.610 L 296.163 173.600 296.242 143.504 C 296.302 120.435,296.230 113.318,295.936 113.024 C 295.527 112.615,289.563 112.464,289.173 112.853 M100.800 113.171 C 98.032 114.134,96.011 115.674,95.151 117.475 C 93.473 120.986,93.600 118.610,93.600 146.560 C 93.600 169.966,93.649 172.422,94.135 173.440 C 94.429 174.056,94.758 174.871,94.867 175.250 C 95.825 178.600,100.466 180.160,109.472 180.160 C 114.744 180.160,114.621 180.247,114.493 176.591 L 114.400 173.920 108.631 173.752 C 101.870 173.556,101.161 173.293,100.520 170.745 C 99.986 168.625,100.063 123.452,100.603 121.920 C 101.297 119.952,102.620 119.546,108.960 119.360 L 114.400 119.200 114.400 116.160 L 114.400 113.120 107.840 113.062 C 104.232 113.030,101.064 113.079,100.800 113.171 M156.096 113.344 C 156.781 114.029,156.638 178.991,155.950 179.561 C 155.177 180.201,150.483 180.169,150.073 179.520 C 149.728 178.974,149.630 113.517,149.973 113.173 C 150.359 112.787,155.688 112.936,156.096 113.344 M114.080 116.160 L 114.080 118.880 108.480 119.040 C 102.304 119.216,101.054 119.556,100.466 121.215 C 100.298 121.691,100.016 122.330,99.840 122.636 C 99.634 122.993,99.526 131.510,99.538 146.476 C 99.561 176.332,98.763 173.852,108.404 174.026 L 114.265 174.131 114.173 176.746 L 114.080 179.360 107.200 179.348 C 98.299 179.333,96.483 178.525,94.767 173.818 C 94.021 171.772,93.648 120.945,94.375 120.495 C 94.538 120.395,94.769 119.867,94.888 119.322 C 95.870 114.854,99.311 113.273,107.840 113.369 L 114.080 113.440 114.080 116.160 M134.045 114.695 C 135.616 115.853,136.874 117.749,137.591 120.036 C 138.559 123.124,138.597 169.473,137.634 172.840 C 136.540 176.667,134.662 178.668,131.360 179.525 L 130.400 179.774 131.303 179.807 C 133.268 179.879,136.925 176.762,137.462 174.559 C 137.590 174.031,137.890 173.316,138.128 172.969 C 138.775 172.024,138.768 121.081,138.121 120.151 C 137.879 119.804,137.580 119.052,137.455 118.480 C 137.331 117.908,137.106 117.440,136.956 117.440 C 136.806 117.440,136.592 117.152,136.480 116.800 C 136.219 115.979,134.063 113.926,133.458 113.923 C 133.204 113.921,133.468 114.269,134.045 114.695 M177.400 118.954 C 175.867 119.139,175.048 120.249,174.708 122.601 C 174.288 125.501,174.319 167.630,174.742 170.240 C 175.263 173.455,177.354 174.896,180.109 173.940 C 181.256 173.541,181.232 173.533,178.985 173.553 C 174.725 173.590,174.984 175.485,175.104 145.120 L 175.200 120.800 175.920 120.080 C 177.228 118.772,180.703 119.044,181.840 120.543 C 182.324 121.181,182.720 121.491,182.720 121.231 C 182.720 119.807,179.995 118.640,177.400 118.954 M188.766 127.680 L 188.640 135.520 186.271 135.615 C 183.095 135.742,183.228 136.026,183.027 128.705 L 182.853 122.400 182.787 129.048 L 182.720 135.696 183.541 136.008 C 184.778 136.478,187.941 136.391,188.659 135.866 C 189.396 135.327,189.692 127.859,189.180 122.720 C 188.923 120.142,188.879 120.662,188.766 127.680 M270.213 122.400 C 270.413 124.346,271.004 128.836,271.413 131.520 C 271.614 132.840,271.889 134.856,272.024 136.000 C 272.232 137.756,272.254 137.567,272.165 134.788 C 272.107 132.978,271.921 131.322,271.751 131.108 C 271.582 130.895,271.345 129.099,271.225 127.118 C 271.104 125.138,270.798 122.978,270.544 122.318 L 270.082 121.120 270.213 122.400 M131.352 146.560 C 131.352 159.672,131.392 165.036,131.440 158.480 C 131.488 151.924,131.488 141.196,131.440 134.640 C 131.392 128.084,131.352 133.448,131.352 146.560 M258.597 129.817 C 258.362 130.666,258.127 132.728,258.075 134.400 C 258.023 136.072,258.038 136.864,258.109 136.160 C 258.180 135.456,258.473 133.568,258.761 131.965 C 259.346 128.702,259.251 127.457,258.597 129.817 M104.137 131.945 C 104.047 132.179,104.015 133.655,104.067 135.225 L 104.160 138.080 106.925 138.172 C 110.493 138.291,110.720 138.093,110.720 134.880 C 110.720 131.723,110.496 131.520,107.007 131.520 C 105.051 131.520,104.255 131.638,104.137 131.945 M121.350 132.080 C 121.052 132.806,121.052 136.954,121.350 137.680 C 121.543 138.150,122.004 138.239,124.230 138.235 C 127.810 138.228,127.840 138.201,127.840 134.880 C 127.840 131.559,127.810 131.532,124.230 131.525 C 122.004 131.521,121.543 131.610,121.350 132.080 M109.749 132.459 C 109.931 132.799,110.080 133.889,110.080 134.880 C 110.080 137.682,109.844 137.920,107.063 137.920 C 104.301 137.920,104.320 137.944,104.320 134.587 C 104.320 131.749,104.228 131.840,107.082 131.840 C 109.064 131.840,109.468 131.934,109.749 132.459 M126.915 132.400 C 127.479 133.143,127.471 136.626,126.904 137.375 C 126.541 137.853,126.075 137.934,124.114 137.855 L 121.760 137.760 121.666 135.228 C 121.614 133.836,121.645 132.504,121.736 132.268 C 122.003 131.571,126.369 131.682,126.915 132.400 M264.320 134.579 C 264.320 135.205,264.451 135.637,264.612 135.538 C 264.772 135.438,264.995 135.901,265.107 136.565 C 265.220 137.230,265.446 137.986,265.611 138.247 C 266.106 139.029,265.988 137.406,265.398 135.301 C 264.809 133.203,264.320 132.875,264.320 134.579 M263.952 138.240 C 263.838 139.560,263.592 141.648,263.405 142.880 C 263.066 145.124,262.437 149.897,262.203 152.000 L 262.079 153.120 262.540 151.927 C 262.794 151.271,263.142 149.111,263.315 147.127 C 263.487 145.143,263.791 142.764,263.989 141.839 C 264.187 140.915,264.307 139.187,264.255 137.999 L 264.160 135.840 263.952 138.240 M257.439 138.242 C 257.315 138.443,257.072 140.285,256.898 142.337 C 256.725 144.389,256.449 146.320,256.284 146.628 C 256.119 146.936,255.903 148.595,255.805 150.314 C 255.707 152.033,255.422 154.078,255.173 154.857 C 254.924 155.636,254.735 157.004,254.752 157.897 C 254.795 160.051,255.959 154.326,255.984 151.838 C 255.993 150.957,256.146 149.733,256.324 149.118 C 256.502 148.503,256.791 146.632,256.964 144.960 C 257.138 143.288,257.445 141.088,257.646 140.072 C 257.998 138.289,257.907 137.485,257.439 138.242 M272.342 138.880 C 272.330 139.320,272.536 140.809,272.800 142.188 C 273.064 143.568,273.280 145.388,273.280 146.234 C 273.280 147.080,273.492 148.831,273.750 150.126 C 274.009 151.421,274.273 152.984,274.339 153.600 C 274.404 154.216,274.481 153.753,274.509 152.571 C 274.537 151.389,274.358 149.805,274.112 149.051 C 273.865 148.297,273.566 146.240,273.447 144.480 C 273.242 141.438,272.389 137.118,272.342 138.880 M266.097 142.720 C 266.234 146.320,267.130 151.101,267.177 148.480 C 267.188 147.864,267.048 146.826,266.867 146.173 C 266.686 145.521,266.407 143.649,266.247 142.013 L 265.957 139.040 266.097 142.720 M178.307 148.432 C 178.007 148.622,177.920 149.512,177.987 151.707 L 178.080 154.720 180.240 154.815 C 181.428 154.867,182.430 154.939,182.466 154.975 C 182.502 155.011,182.615 158.568,182.717 162.880 L 182.902 170.720 182.966 163.040 C 183.040 154.182,183.169 154.624,180.472 154.497 L 178.400 154.400 178.400 151.520 L 178.400 148.640 183.734 148.640 C 186.668 148.640,189.188 148.760,189.334 148.907 C 189.649 149.223,189.698 179.688,189.384 180.003 C 188.971 180.415,187.830 179.789,187.368 178.896 C 186.691 177.586,186.012 177.459,184.965 178.447 C 184.470 178.914,183.295 179.628,182.353 180.035 C 180.991 180.623,180.812 180.777,181.481 180.787 C 181.943 180.794,182.501 180.584,182.720 180.320 C 182.939 180.056,183.345 179.840,183.622 179.840 C 183.898 179.840,184.514 179.467,184.990 179.011 C 186.006 178.038,186.988 178.314,187.328 179.667 C 187.564 180.609,188.881 181.077,189.604 180.477 C 190.013 180.137,190.080 177.892,190.080 164.433 L 190.080 148.784 189.259 148.472 C 188.269 148.096,178.891 148.061,178.307 148.432 M267.262 153.120 C 267.243 154.354,267.435 155.935,267.689 156.640 C 267.943 157.344,268.153 158.892,268.155 160.080 L 268.160 162.240 265.040 162.235 C 261.085 162.229,261.056 162.210,261.627 160.008 C 261.876 159.047,262.055 157.248,262.024 156.010 C 261.984 154.413,261.935 154.178,261.855 155.200 C 261.793 155.992,261.520 157.756,261.250 159.121 C 260.502 162.891,260.491 162.880,264.650 162.880 C 269.047 162.880,269.391 161.971,267.848 154.419 C 267.666 153.529,267.467 152.368,267.407 151.840 C 267.346 151.312,267.281 151.888,267.262 153.120 M124.107 154.644 C 122.934 156.094,120.918 158.596,119.627 160.205 C 116.403 164.224,116.311 164.233,112.739 160.854 C 110.403 158.645,110.403 158.645,109.285 159.485 C 107.836 160.573,108.182 161.533,110.984 164.208 C 116.318 169.300,117.001 169.227,121.935 163.040 C 123.058 161.632,124.302 160.120,124.699 159.680 C 128.816 155.122,129.601 153.693,128.539 152.696 C 127.189 151.427,126.444 151.755,124.107 154.644 M128.234 153.040 L 128.899 153.760 126.489 156.800 C 125.164 158.472,123.983 159.912,123.865 160.000 C 123.746 160.088,122.479 161.615,121.047 163.393 C 116.877 168.573,116.525 168.599,111.464 164.090 C 108.708 161.634,108.334 160.861,109.444 159.911 C 110.338 159.146,110.284 159.120,112.960 161.600 C 116.333 164.726,116.454 164.703,120.089 160.199 C 121.527 158.418,123.038 156.600,123.447 156.160 C 123.857 155.720,124.718 154.676,125.362 153.840 C 126.666 152.146,127.256 151.981,128.234 153.040 M274.698 156.960 C 275.220 162.837,276.733 172.026,276.772 169.560 C 276.787 168.570,276.584 167.148,276.320 166.400 C 276.056 165.652,275.831 164.086,275.821 162.920 C 275.802 160.785,275.517 158.867,274.912 156.800 L 274.584 155.680 274.698 156.960 M254.346 161.600 C 254.238 162.392,253.994 163.616,253.803 164.320 C 253.612 165.024,253.476 166.608,253.501 167.840 C 253.527 169.072,253.594 169.504,253.650 168.800 C 253.706 168.096,253.981 166.364,254.262 164.952 C 254.542 163.540,254.720 161.884,254.656 161.272 C 254.544 160.185,254.537 160.192,254.346 161.600 M260.417 169.177 C 259.858 169.324,259.757 169.790,259.348 174.080 C 259.155 176.104,258.472 179.206,258.078 179.844 C 257.796 180.300,253.330 180.242,252.864 179.776 C 252.418 179.330,252.393 177.169,252.808 174.880 C 252.968 174.000,253.178 172.632,253.275 171.840 L 253.451 170.400 252.974 171.624 C 252.321 173.298,251.956 179.181,252.448 180.100 C 252.902 180.949,257.536 181.169,258.197 180.372 C 258.986 179.421,259.570 176.931,259.802 173.523 C 260.103 169.100,259.679 169.440,264.906 169.440 L 269.280 169.440 269.363 170.720 C 269.409 171.424,269.660 173.008,269.921 174.240 C 270.182 175.472,270.449 176.840,270.514 177.280 C 270.582 177.736,270.652 177.511,270.676 176.754 C 270.713 175.640,270.350 173.295,269.581 169.680 C 269.433 168.983,262.581 168.607,260.417 169.177 M129.807 172.171 C 129.129 172.869,128.745 173.440,128.952 173.440 C 129.424 173.440,131.200 171.690,131.200 171.225 C 131.200 170.743,131.183 170.754,129.807 172.171 M182.437 171.406 C 182.417 171.783,182.184 172.174,181.920 172.276 C 181.656 172.377,181.440 172.700,181.440 172.993 C 181.440 173.391,181.608 173.312,182.103 172.683 C 182.468 172.219,182.701 171.588,182.621 171.280 C 182.505 170.839,182.466 170.865,182.437 171.406 M276.970 174.080 C 277.044 175.224,277.232 176.771,277.389 177.518 C 277.837 179.655,277.399 180.000,274.239 180.000 C 272.024 180.000,271.559 179.906,271.174 179.379 C 270.794 178.859,270.720 178.843,270.720 179.281 C 270.720 180.277,272.011 180.800,274.471 180.800 C 277.920 180.800,278.675 179.722,277.722 176.160 C 277.534 175.456,277.257 174.232,277.108 173.440 C 276.866 172.161,276.850 172.233,276.970 174.080 M116.693 173.653 C 116.012 174.335,116.487 179.830,117.271 180.344 C 118.245 180.982,129.290 180.919,129.937 180.272 C 130.214 179.994,128.845 179.947,124.368 180.079 C 116.772 180.303,116.800 180.316,116.800 176.639 C 116.800 173.572,116.343 173.789,123.040 173.668 L 127.840 173.582 122.373 173.511 C 119.367 173.472,116.811 173.536,116.693 173.653 M176.880 181.031 C 177.452 181.102,178.388 181.102,178.960 181.031 C 179.532 180.961,179.064 180.902,177.920 180.902 C 176.776 180.902,176.308 180.961,176.880 181.031 M122.080 182.257 C 120.848 182.491,118.040 182.987,115.840 183.359 C 105.621 185.085,106.560 184.610,106.560 188.059 C 106.560 191.359,106.727 191.472,110.720 190.866 C 112.216 190.638,114.952 190.223,116.800 189.943 C 118.648 189.662,120.577 189.290,121.088 189.116 C 121.598 188.942,122.561 188.800,123.227 188.800 C 125.888 188.800,126.080 188.555,126.080 185.162 C 126.080 181.383,126.203 181.472,122.080 182.257 M125.558 182.800 C 125.805 183.722,125.808 186.509,125.562 187.425 C 125.412 187.986,125.069 188.167,123.886 188.309 C 123.069 188.407,121.536 188.644,120.480 188.835 C 119.424 189.027,117.264 189.370,115.680 189.597 C 114.096 189.825,112.143 190.181,111.340 190.388 C 110.537 190.596,109.313 190.719,108.620 190.663 L 107.360 190.560 107.360 188.022 L 107.360 185.484 109.600 184.925 C 110.832 184.618,112.848 184.264,114.080 184.139 C 115.312 184.014,116.646 183.790,117.045 183.642 C 117.444 183.493,119.088 183.212,120.699 183.016 C 122.310 182.820,123.927 182.538,124.294 182.390 C 125.278 181.992,125.348 182.014,125.558 182.800 M123.360 190.405 C 122.832 190.548,121.320 190.822,120.000 191.013 C 112.598 192.085,108.511 192.821,107.280 193.304 C 106.612 193.566,106.560 193.783,106.560 196.302 C 106.560 199.572,106.815 199.839,109.490 199.372 C 111.596 199.004,115.048 198.442,117.600 198.052 C 118.656 197.891,120.672 197.530,122.080 197.251 C 123.488 196.972,124.964 196.682,125.360 196.606 C 126.042 196.475,126.080 196.318,126.080 193.658 C 126.080 190.079,125.801 189.744,123.360 190.405 M125.611 191.450 C 125.712 191.851,125.750 193.111,125.697 194.250 L 125.600 196.320 123.575 196.543 C 122.462 196.666,121.094 196.908,120.535 197.081 C 119.977 197.254,118.584 197.489,117.440 197.602 C 116.296 197.716,114.856 197.946,114.240 198.115 C 112.594 198.564,108.218 199.042,107.672 198.833 C 107.312 198.694,107.200 198.061,107.200 196.160 C 107.200 193.428,107.306 193.280,109.255 193.280 C 109.829 193.280,110.983 193.074,111.819 192.822 C 112.656 192.570,114.299 192.271,115.470 192.158 C 116.642 192.044,118.071 191.805,118.647 191.628 C 119.589 191.338,122.858 190.871,124.714 190.762 C 125.209 190.733,125.484 190.943,125.611 191.450 M120.960 198.960 C 120.520 199.024,119.728 199.208,119.200 199.371 C 118.672 199.533,116.951 199.809,115.376 199.986 C 111.279 200.444,110.937 200.844,112.313 203.566 C 114.041 206.985,114.603 207.243,117.919 206.134 C 119.612 205.568,119.760 205.384,121.767 201.320 C 122.713 199.405,122.485 198.739,120.960 198.960 M121.920 199.826 C 121.920 200.082,121.505 200.996,120.997 201.857 C 120.489 202.718,119.980 203.719,119.865 204.082 C 119.126 206.409,114.078 206.874,113.410 204.678 C 113.297 204.305,113.017 203.784,112.787 203.520 C 111.112 201.593,112.508 200.576,117.440 200.134 C 118.760 200.016,120.056 199.798,120.320 199.649 C 121.078 199.223,121.920 199.316,121.920 199.826 " stroke="none" fill="#a4b1b4" fill-rule="evenodd"></path><path id="path4" d="M175.200 112.495 C 171.696 113.726,169.917 115.420,168.667 118.720 C 167.653 121.396,167.619 171.636,168.629 174.294 C 171.177 180.997,179.910 183.218,184.964 178.448 C 186.012 177.459,186.691 177.585,187.368 178.896 C 187.830 179.789,188.971 180.415,189.384 180.003 C 189.698 179.688,189.649 149.223,189.334 148.907 C 189.188 148.760,186.668 148.640,183.734 148.640 L 178.400 148.640 178.400 151.520 L 178.400 154.400 180.558 154.495 C 183.271 154.614,183.119 154.022,182.985 163.883 C 182.866 172.739,182.795 172.998,180.265 173.879 C 177.341 174.897,175.277 173.537,174.742 170.240 C 174.317 167.621,174.289 125.496,174.710 122.584 C 175.251 118.843,179.279 117.372,181.874 119.966 L 182.880 120.972 182.993 127.766 C 183.130 136.059,182.998 135.733,186.178 135.613 L 188.640 135.520 188.727 127.520 L 188.815 119.520 187.689 117.240 C 185.546 112.896,180.027 110.799,175.200 112.495 M182.235 113.105 C 187.203 114.399,188.320 117.016,188.320 127.360 L 188.320 134.880 186.741 134.980 C 183.543 135.182,183.680 135.421,183.678 129.674 C 183.673 120.115,182.990 118.578,178.747 118.578 C 176.077 118.578,175.402 118.951,174.454 120.954 C 173.658 122.632,173.464 167.628,174.238 170.652 C 175.156 174.235,177.936 175.721,180.877 174.200 C 183.347 172.923,183.680 171.487,183.680 162.103 C 183.680 153.919,183.826 154.320,180.788 154.177 L 178.720 154.080 178.720 151.520 L 178.720 148.960 183.605 148.872 L 188.489 148.783 188.805 149.612 C 189.151 150.522,189.255 176.523,188.920 178.200 C 188.669 179.454,188.036 179.486,187.533 178.270 C 186.948 176.860,185.977 176.782,184.643 178.038 C 179.563 182.826,171.077 180.445,168.941 173.634 C 168.079 170.884,167.976 122.839,168.826 119.957 C 170.630 113.841,175.502 111.352,182.235 113.105 M117.200 113.158 C 116.926 113.278,116.800 114.176,116.800 116.015 C 116.800 119.417,116.695 119.359,122.779 119.365 C 127.916 119.370,129.438 119.682,130.644 120.977 L 131.360 121.745 131.450 145.778 C 131.563 176.249,132.327 173.542,123.577 173.691 C 116.236 173.815,116.800 173.571,116.800 176.628 C 116.800 180.069,116.941 180.161,122.231 180.157 C 132.998 180.150,135.944 178.751,137.634 172.840 C 138.602 169.456,138.559 123.123,137.585 120.016 C 136.637 116.991,135.245 115.256,132.640 113.851 C 131.384 113.173,118.487 112.595,117.200 113.158 M149.973 113.173 C 149.630 113.517,149.728 178.974,150.073 179.520 C 150.483 180.169,155.177 180.201,155.950 179.561 C 156.638 178.991,156.781 114.029,156.096 113.344 C 155.688 112.936,150.359 112.787,149.973 113.173 M201.344 113.344 C 200.866 113.822,200.790 178.755,201.266 179.508 C 201.726 180.236,205.852 180.383,206.881 179.709 L 207.680 179.185 207.680 146.457 C 207.680 121.428,207.590 113.638,207.296 113.344 C 206.780 112.828,201.860 112.828,201.344 113.344 M219.600 113.172 C 219.061 113.389,219.047 118.439,219.584 118.976 C 219.827 119.219,221.053 119.360,222.933 119.360 C 225.536 119.360,225.938 119.435,226.229 119.979 C 226.450 120.393,226.560 130.307,226.560 149.881 L 226.560 179.164 227.271 179.662 C 228.140 180.270,231.183 180.321,232.320 179.746 L 233.120 179.341 233.280 149.431 L 233.440 119.520 236.640 119.432 C 239.183 119.362,239.922 119.235,240.240 118.811 C 240.760 118.117,240.773 113.861,240.256 113.344 C 239.871 112.959,220.526 112.798,219.600 113.172 M261.873 113.199 C 261.329 113.557,260.871 115.592,260.493 119.333 C 260.308 121.166,260.023 123.182,259.860 123.813 C 259.697 124.444,259.475 125.968,259.366 127.200 C 259.257 128.432,258.967 130.664,258.722 132.160 C 258.253 135.025,257.868 137.897,257.126 144.069 C 256.879 146.132,256.525 148.364,256.340 149.029 C 256.155 149.695,256.003 150.896,256.002 151.698 C 256.001 152.500,255.712 154.724,255.360 156.640 C 255.008 158.556,254.720 160.704,254.720 161.414 C 254.720 162.124,254.510 163.789,254.253 165.113 C 253.996 166.437,253.633 168.816,253.447 170.400 C 253.261 171.984,252.976 174.000,252.813 174.880 C 252.393 177.156,252.416 179.328,252.864 179.776 C 253.330 180.242,257.796 180.300,258.078 179.844 C 258.547 179.085,259.210 175.770,259.492 172.779 C 259.868 168.778,259.357 169.139,264.814 169.017 C 269.408 168.913,269.416 168.915,269.575 169.657 C 270.347 173.263,270.720 175.688,270.720 177.093 C 270.720 179.666,271.124 180.000,274.239 180.000 C 277.397 180.000,277.835 179.655,277.392 177.518 C 277.237 176.771,276.985 174.855,276.830 173.260 C 276.676 171.666,276.324 168.930,276.048 167.180 C 275.523 163.856,275.180 161.233,274.395 154.560 C 274.136 152.360,273.783 149.984,273.610 149.280 C 273.437 148.576,273.292 147.257,273.288 146.348 C 273.283 145.440,273.075 143.623,272.824 142.311 C 272.573 140.999,272.276 138.862,272.166 137.563 C 272.055 136.263,271.763 133.976,271.517 132.480 C 271.271 130.984,270.922 128.464,270.742 126.880 C 269.707 117.786,269.380 115.386,269.028 114.312 L 268.639 113.120 265.439 113.039 C 263.680 112.994,262.075 113.066,261.873 113.199 M289.493 113.173 C 289.376 113.291,289.280 128.270,289.280 146.461 L 289.280 179.536 290.101 179.848 C 291.484 180.374,306.726 180.251,307.174 179.711 C 307.411 179.426,307.513 178.285,307.453 176.591 L 307.360 173.920 301.760 173.741 C 298.680 173.642,296.124 173.534,296.080 173.501 C 296.036 173.467,296.000 159.981,296.000 143.531 C 296.000 109.070,296.479 112.960,292.234 112.960 C 290.844 112.960,289.611 113.056,289.493 113.173 M131.840 114.063 C 133.637 114.836,136.000 116.848,136.000 117.606 C 136.000 117.837,136.151 118.077,136.335 118.138 C 138.819 118.966,138.717 171.164,136.223 175.360 C 134.246 178.685,132.631 179.287,125.224 179.459 C 117.000 179.650,117.390 179.789,117.507 176.711 L 117.600 174.240 123.594 174.080 L 129.589 173.920 130.551 172.957 C 132.138 171.369,132.189 170.465,132.089 145.552 C 131.974 116.745,132.745 119.032,123.040 118.730 L 117.600 118.560 117.505 116.188 C 117.383 113.153,117.072 113.288,124.160 113.298 C 129.667 113.305,130.203 113.359,131.840 114.063 M155.334 113.474 C 156.001 113.730,156.121 178.471,155.456 179.136 C 155.056 179.536,152.051 179.654,150.800 179.318 L 150.080 179.125 150.080 146.389 C 150.080 120.500,150.164 113.620,150.480 113.492 C 151.058 113.259,154.737 113.245,155.334 113.474 M206.962 146.045 C 207.021 169.872,206.946 178.768,206.682 179.085 C 206.132 179.748,201.733 179.688,201.474 179.014 C 201.200 178.300,201.231 113.756,201.505 113.481 C 201.629 113.358,202.889 113.298,204.305 113.348 L 206.880 113.440 206.962 146.045 M239.933 116.069 L 240.026 118.697 236.741 118.789 C 232.184 118.915,232.650 115.382,232.645 149.806 C 232.640 176.249,232.590 179.151,232.134 179.326 C 231.478 179.577,228.362 179.577,227.706 179.326 C 227.250 179.151,227.200 176.236,227.200 149.627 C 227.200 115.229,227.707 118.948,222.987 118.720 L 219.680 118.560 219.584 116.352 C 219.438 112.973,218.460 113.259,229.832 113.355 L 239.840 113.440 239.933 116.069 M268.289 113.549 C 268.559 113.987,269.100 117.320,269.596 121.600 C 269.850 123.800,270.204 126.176,270.382 126.880 C 270.559 127.584,270.711 129.024,270.718 130.080 C 270.725 131.136,270.946 133.008,271.208 134.240 C 271.471 135.472,271.760 137.488,271.851 138.720 C 271.941 139.952,272.228 142.256,272.487 143.840 C 272.930 146.546,273.153 148.307,273.945 155.360 C 274.122 156.944,274.469 159.536,274.715 161.120 C 274.961 162.704,275.307 165.224,275.484 166.720 C 275.661 168.216,275.953 170.520,276.134 171.840 C 277.237 179.907,277.306 179.688,273.729 179.460 C 271.206 179.299,271.412 179.592,271.042 175.651 C 270.713 172.150,270.163 169.392,269.661 168.720 C 269.214 168.122,260.818 168.162,259.992 168.766 C 259.536 169.100,259.324 169.803,259.147 171.566 C 259.018 172.861,258.718 175.144,258.480 176.640 L 258.048 179.360 255.504 179.360 L 252.960 179.360 252.854 178.432 C 252.796 177.922,252.918 176.842,253.126 176.032 C 253.334 175.222,253.695 172.904,253.929 170.880 C 254.162 168.856,254.502 166.192,254.684 164.960 C 255.445 159.814,255.730 157.723,256.166 154.080 C 256.419 151.968,256.773 149.737,256.953 149.122 C 257.133 148.507,257.283 147.211,257.286 146.242 C 257.289 145.273,257.506 143.472,257.768 142.240 C 258.031 141.008,258.327 138.992,258.428 137.760 C 258.528 136.528,258.807 134.512,259.047 133.280 C 259.287 132.048,259.575 129.960,259.687 128.640 C 259.798 127.320,260.092 125.376,260.340 124.320 C 260.588 123.264,260.793 121.683,260.795 120.807 C 260.799 119.500,261.469 115.351,261.946 113.680 C 262.078 113.218,268.008 113.096,268.289 113.549 M294.854 113.474 C 295.310 113.649,295.360 116.597,295.360 143.543 C 295.360 172.752,295.374 173.425,295.979 173.749 C 296.334 173.939,298.861 174.080,301.912 174.080 L 307.226 174.080 307.133 176.720 L 307.040 179.360 299.360 179.453 C 295.136 179.504,291.212 179.462,290.640 179.359 L 289.600 179.171 289.600 146.412 C 289.600 120.505,289.684 113.620,290.000 113.492 C 290.578 113.259,294.257 113.245,294.854 113.474 M264.191 131.600 C 264.104 132.172,263.953 133.795,263.855 135.207 C 263.757 136.618,263.464 138.778,263.204 140.007 C 262.944 141.235,262.729 143.053,262.726 144.046 C 262.723 145.039,262.507 146.911,262.246 148.206 C 261.985 149.501,261.636 151.928,261.469 153.600 C 261.303 155.272,260.988 157.824,260.768 159.271 C 260.142 163.397,260.254 163.520,264.610 163.520 C 269.176 163.520,269.157 163.538,268.930 159.427 C 268.835 157.718,268.555 155.240,268.306 153.920 C 268.058 152.600,267.705 149.811,267.523 147.722 C 267.340 145.633,267.104 143.783,266.997 143.610 C 266.890 143.438,266.673 141.553,266.514 139.421 C 266.090 133.721,264.620 128.774,264.191 131.600 M265.385 135.280 C 265.665 136.292,266.046 138.915,266.233 141.109 C 266.420 143.303,266.700 145.607,266.855 146.229 C 267.010 146.851,267.230 148.728,267.342 150.400 C 267.455 152.072,267.683 153.951,267.848 154.575 C 268.341 156.433,268.732 161.708,268.421 162.320 C 268.177 162.802,267.650 162.880,264.650 162.880 C 260.494 162.880,260.507 162.895,261.238 159.121 C 261.503 157.756,261.810 155.488,261.922 154.080 C 262.033 152.672,262.249 151.016,262.402 150.400 C 262.554 149.784,262.831 147.696,263.018 145.760 C 263.205 143.824,263.499 141.520,263.672 140.640 C 263.845 139.760,264.075 137.780,264.182 136.240 C 264.410 132.968,264.684 132.749,265.385 135.280 " stroke="none" fill="#8c8c8c" fill-rule="evenodd"></path></g></svg>